<svg width="525" height="388" viewBox="0 0 525 388" fill="none" xmlns="http://www.w3.org/2000/svg">
<path d="M469 268H356V383H469V268Z" fill="#7741DD"/>
<path d="M170 339C263.336 339 339 263.336 339 170C339 76.6639 263.336 1 170 1C76.6639 1 1 76.6639 1 170C1 263.336 76.6639 339 170 339Z" stroke="#6633CC" stroke-width="2"/>
<path d="M249 374C342.336 374 418 298.56 418 205.5C418 112.44 342.336 37 249 37C155.664 37 80 112.44 80 205.5C80 298.56 155.664 374 249 374Z" stroke="#6633CC" stroke-opacity="0.5" stroke-width="2"/>
<path d="M525 34H330V152H525V34Z" fill="#323E4D"/>
<path d="M428.009 118.603V126.479H445.922V118.603H428.009Z" fill="#F9CC11"/>
<path d="M406.859 102.684V110.56H445.922V102.684H406.859Z" fill="#4160DD"/>
<path d="M336.201 102.684V110.56H353.51V102.684H336.201Z" fill="#4160DD"/>
<path d="M360.43 102.684V110.56H402.248V102.684H360.43Z" fill="#EE581C"/>
<path d="M444 104H138V322H444V104Z" fill="black"/>
<path d="M436 112H130V330H436V112Z" fill="#F9BB12"/>
<path d="M435.5 112.5H130.5V329.5H435.5V112.5Z" stroke="black"/>
<path d="M336.201 66.8681V74.7441H419.276V66.8681H336.201Z" fill="#F9CC11"/>
<path d="M336.201 86.7661V94.6421H370.819V86.7661H336.201Z" fill="#4160DD"/>
<path d="M336.201 118.603V126.479H374.011V118.603H336.201Z" fill="white" stroke="#707070"/>
<path d="M379.977 118.603V126.479H422.044V118.603H379.977Z" fill="white" stroke="#707070"/>
<path d="M436 112H130V144H436V112Z" fill="#EE581C"/>
<path d="M435.5 112.5H130.5V143.5H435.5V112.5Z" stroke="#020307"/>
<g opacity="0.998">
<path opacity="0.998" d="M163 112H130V144H163V112Z" fill="#4160DD"/>
<path opacity="0.998" d="M162.5 112.5H130.5V143.5H162.5V112.5Z" stroke="black"/>
</g>
<path d="M146.073 167.145H280.649" stroke="#0E1924"/>
<path d="M146.073 184.39H280.649" stroke="#0E1924"/>
<path d="M146.073 198.982H280.649" stroke="#0E1924"/>
<path d="M146.073 216.228H280.649" stroke="#0E1924"/>
<path d="M146.073 230.82H200.241" stroke="#0E1924"/>
<path d="M408.5 157.5H320.5V304.5H408.5V157.5Z" stroke="#0E1924"/>
<path d="M365.517 243.605C360.746 243.605 356.082 242.494 351.656 240.302C347.492 238.24 343.648 235.28 340.226 231.503C343.648 227.726 347.492 224.766 351.656 222.704C356.082 220.512 360.746 219.401 365.517 219.401C370.288 219.401 374.952 220.512 379.378 222.704C383.542 224.766 387.386 227.726 390.809 231.503C387.386 235.28 383.542 238.24 379.378 240.302C374.952 242.494 370.288 243.605 365.517 243.605Z" fill="#EE581C"/>
<path d="M365.517 243.105C370.211 243.105 374.8 242.011 379.156 239.854C383.14 237.881 386.829 235.074 390.131 231.503C386.829 227.932 383.14 225.125 379.156 223.152C374.8 220.995 370.211 219.901 365.517 219.901C360.823 219.901 356.235 220.995 351.878 223.152C347.894 225.125 344.206 227.932 340.904 231.503C344.206 235.074 347.894 237.881 351.878 239.854C356.235 242.011 360.823 243.105 365.517 243.105ZM365.517 244.105C355.602 244.105 346.532 239.358 339.554 231.503C346.532 223.648 355.602 218.901 365.517 218.901C375.432 218.901 384.502 223.648 391.48 231.503C384.502 239.358 375.432 244.105 365.517 244.105Z" fill="#0E1924"/>
<path d="M525 34H461V152H525V34Z" fill="#171B38"/>
<path d="M525 34H330V51H525V34Z" fill="#EE581C"/>
<path d="M524.5 34.5H330.5V50.5H524.5V34.5Z" stroke="#EE581C"/>
<path d="M348 34H330V51H348V34Z" fill="#4160DD"/>
<path d="M471.485 59.91H502.985" stroke="#F9CC11"/>
<path d="M471.485 77.155H502.985" stroke="#4160DD"/>
<path d="M471.485 83.787H502.985" stroke="#4160DD"/>
<path d="M471.485 97.053H492.091" stroke="#F9CC11"/>
<path d="M471.485 91.747H478.485" stroke="#F9CC11"/>
<path d="M480.771 91.747H512.289" stroke="#4160DD"/>
<path d="M471.485 69.195H483.943" stroke="#EE581C"/>
<path d="M486.637 69.195H512.288" stroke="#4160DD"/>
<path d="M525 50H330V55H525V50Z" fill="black"/>
<path d="M418 348C421.866 348 425 344.866 425 341C425 337.134 421.866 334 418 334C414.134 334 411 337.134 411 341C411 344.866 414.134 348 418 348Z" fill="white"/>
<path d="M418 347.5C421.59 347.5 424.5 344.59 424.5 341C424.5 337.41 421.59 334.5 418 334.5C414.41 334.5 411.5 337.41 411.5 341C411.5 344.59 414.41 347.5 418 347.5Z" stroke="black"/>
<path d="M388 206H343C337.477 206 333 210.477 333 216V261C333 266.523 337.477 271 343 271H388C393.523 271 398 266.523 398 261V216C398 210.477 393.523 206 388 206Z" fill="#0A00FF"/>
<path d="M122.451 335.286L123.464 336.296L169.841 308.901L123.464 232L122.451 235.441V335.286Z" fill="#6D56B8"/>
<path d="M123.465 336.296V232L77.0883 308.901L123.465 336.296Z" fill="#A081FF"/>
<path d="M122.894 381.334L123.464 383L169.869 317.69L123.465 345.072L122.894 345.767L122.894 381.334Z" fill="#6D56B8"/>
<path d="M77.0883 317.689L123.465 383V345.071L77.0883 317.689Z" fill="#A081FF"/>
<path d="M123.464 287.835V336.296L169.84 308.901L123.464 287.835Z" fill="#221738"/>
<path d="M123.376 287.643L77 308.709L123.376 336.104V287.643Z" fill="#221738" fill-opacity="0.7"/>
</svg>
